<svg width="33" height="33" viewBox="0 0 33 33" fill="none" xmlns="http://www.w3.org/2000/svg">
<circle opacity="0.6" cx="16.5" cy="16.5" r="16" fill="#EBECEF"/>
<path d="M21.75 15.75V21.75C21.75 22.3467 21.5129 22.919 21.091 23.341C20.669 23.7629 20.0967 24 19.5 24H13.5C12.9033 24 12.331 23.7629 11.909 23.341C11.4871 22.919 11.25 22.3467 11.25 21.75V11.25C11.25 10.4544 11.5661 9.69129 12.1287 9.12868C12.6913 8.56607 13.4544 8.25 14.25 8.25C15.0456 8.25 15.8087 8.56607 16.3713 9.12868C16.9339 9.69129 17.25 10.4544 17.25 11.25V21C17.25 21.3978 17.092 21.7794 16.8107 22.0607C16.5294 22.342 16.1478 22.5 15.75 22.5C15.3522 22.5 14.9706 22.342 14.6893 22.0607C14.408 21.7794 14.25 21.3978 14.25 21V12.75" stroke="#292B32" stroke-width="1.3" stroke-linecap="round" stroke-linejoin="round"/>
</svg>
